<svg width="680" height="680" xmlns="http://www.w3.org/2000/svg">

 <g>
  <title>Layer 1</title>
  <path id="svg_1" d="m-110.64516,-86l908,0l0,866l-908,0l0,-866z" opacity="undefined" stroke-width="1px" fill="#000000"/>
  <path id="svg_2" stroke-width="1px" fill="rgb(42, 42, 42)" d="m40,340l3,-8.8l3,-8.8l3,-8.8l3,-8.7l3,-8.7l3,-8.7l3,-8.6l3,-8.5l3,-8.5l3,-8.4l3,-8.3l3,-8.3l3,-8.1l3,-8l3,-7.9l3,-7.8l3,-7.6l3,-7.5l3,-7.4l3,-7.2l3,-7l3,-6.9l3,-6.7l3,-6.5l3,-6.3l3,-6.1l3,-5.9l3,-5.7l3,-5.5l3,-5.3l3,-5.1l3,-4.8l3,-4.6l3,-4.4l3,-4.1l3,-3.9l3,-3.6l3,-3.3l3,-3.1l3,-2.9l3,-2.6l3,-2.3l3,-2.1l3,-1.7l3,-1.6l3,-1.2l3,-1l3,-0.6l3,-0.5l3,-0.1l3,0.1l3,0.5l3,0.6l3,1l3,1.2l3,1.6l3,1.7l3,2.1l3,2.3l3,2.6l3,2.9l3,3.1l3,3.3l3,3.6l3,3.9l3,4.1l3,4.4l3,4.6l3,4.8l3,5.1l3,5.3l3,5.5l3,5.7l3,5.9l3,6.1l3,6.3l3,6.5l3,6.7l3,6.9l3,7l3,7.2l3,7.4l3,7.5l3,7.6l3,7.8l3,7.9l3,8l3,8.1l3,8.3l3,8.3l3,8.4l3,8.5l3,8.5l3,8.6l3,8.7l3,8.7l3,8.7l3,8.8l3,8.8l3,8.8l3,8.8l3,8.8l3,8.8l3,8.7l3,8.7l3,8.7l3,8.6l3,8.5l3,8.5l3,8.4l3,8.3l3,8.3l3,8.1l3,8l3,7.9l3,7.8l3,7.6l3,7.5l3,7.4l3,7.2l3,7l3,6.9l3,6.7l3,6.5l3,6.3l3,6.1l3,5.9l3,5.7l3,5.5l3,5.3l3,5.1l3,4.8l3,4.6l3,4.4l3,4.1l3,3.9l3,3.6l3,3.3l3,3.1l3,2.9l3,2.6l3,2.3l3,2.1l3,1.7l3,1.6l3,1.2l3,1l3,0.6l3,0.5l3,0.1l3,-0.1l3,-0.5l3,-0.6l3,-1l3,-1.2l3,-1.6l3,-1.7l3,-2.1l3,-2.3l3,-2.6l3,-2.9l3,-3.1l3,-3.3l3,-3.6l3,-3.9l3,-4.1l3,-4.4l3,-4.6l3,-4.8l3,-5.1l3,-5.3l3,-5.5l3,-5.7l3,-5.9l3,-6.1l3,-6.3l3,-6.5l3,-6.7l3,-6.9l3,-7l3,-7.2l3,-7.4l3,-7.5l3,-7.6l3,-7.8l3,-7.9l3,-8l3,-8.1l3,-8.3l3,-8.3l3,-8.4l3,-8.5l3,-8.5l3,-8.6l3,-8.7l3,-8.7l3,-8.7l3,-8.8l3,-8.8l3,-8.8l0,0l-600,0z"/>
  <path id="svg_3" stroke-width="1px" fill="rgb(42, 42, 42)" d="m40,340l3,0l3,0l3,0l3,0l3,0l3,0l3,0l3,0l3,0l3,0l3,0l3,0l3,0l3,0l3,0l3,0l3,0l3,0l3,0l3,0l3,0l3,0l3,0l3,0l3,0l3,0l3,0l3,0l3,0l3,0l3,0l3,0l3,0l3,0l3,0l3,0l3,0l3,0l3,0l3,0l3,0l3,0l3,0l3,0l3,0l3,0l3,0l3,0l3,0l3,0l3,0l3,0l3,0l3,0l3,0l3,0l3,0l3,0l3,0l3,0l3,0l3,0l3,0l3,0l3,0l3,0l3,0l3,0l3,0l3,0l3,0l3,0l3,0l3,0l3,0l3,0l3,0l3,0l3,0l3,0l3,0l3,0l3,0l3,0l3,0l3,0l3,0l3,0l3,0l3,0l3,0l3,0l3,0l3,0l3,0l3,0l3,0l3,0l3,0l3,0l3,8.8l3,8.8l3,8.8l3,8.7l3,8.7l3,8.7l3,8.6l3,8.5l3,8.5l3,8.4l3,8.3l3,8.3l3,8.1l3,8l3,7.9l3,7.8l3,7.6l3,7.5l3,7.4l3,7.2l3,7l3,6.9l3,6.7l3,6.5l3,6.3l3,6.1l3,5.9l3,5.7l3,5.5l3,5.3l3,5.1l3,4.8l3,4.6l3,4.4l3,4.1l3,3.9l3,3.6l3,3.3l3,3.1l3,2.9l3,2.6l3,2.3l3,2.1l3,1.7l3,1.6l3,1.2l3,1l3,0.6l3,0.5l3,0.1l3,-0.1l3,-0.5l3,-0.6l3,-1l3,-1.2l3,-1.6l3,-1.7l3,-2.1l3,-2.3l3,-2.6l3,-2.9l3,-3.1l3,-3.3l3,-3.6l3,-3.9l3,-4.1l3,-4.4l3,-4.6l3,-4.8l3,-5.1l3,-5.3l3,-5.5l3,-5.7l3,-5.9l3,-6.1l3,-6.3l3,-6.5l3,-6.7l3,-6.9l3,-7l3,-7.2l3,-7.4l3,-7.5l3,-7.6l3,-7.8l3,-7.9l3,-8l3,-8.1l3,-8.3l3,-8.3l3,-8.4l3,-8.5l3,-8.5l3,-8.6l3,-8.7l3,-8.7l3,-8.7l3,-8.8l3,-8.8l3,-8.8l0,0l-600,0z"/>
  <path id="svg_4" stroke-linecap="round" stroke-linejoin="round" stroke-width="2.5px" stroke="#ffffff" fill="#1c1c1c" d="m40,340l3,-8.8l3,-8.8l3,-8.8l3,-8.7l3,-8.7l3,-8.7l3,-8.6l3,-8.5l3,-8.5l3,-8.4l3,-8.3l3,-8.3l3,-8.1l3,-8l3,-7.9l3,-7.8l3,-7.6l3,-7.5l3,-7.4l3,-7.2l3,-7l3,-6.9l3,-6.7l3,-6.5l3,-6.3l3,-6.1l3,-5.9l3,-5.7l3,-5.5l3,-5.3l3,-5.1l3,-4.8l3,-4.6l3,-4.4l3,-4.1l3,-3.9l3,-3.6l3,-3.3l3,-3.1l3,-2.9l3,-2.6l3,-2.3l3,-2.1l3,-1.7l3,-1.6l3,-1.2l3,-1l3,-0.6l3,-0.5l3,-0.1l3,0.1l3,0.5l3,0.6l3,1l3,1.2l3,1.6l3,1.7l3,2.1l3,2.3l3,2.6l3,2.9l3,3.1l3,3.3l3,3.6l3,3.9l3,4.1l3,4.4l3,4.6l3,4.8l3,5.1l3,5.3l3,5.5l3,5.7l3,5.9l3,6.1l3,6.3l3,6.5l3,6.7l3,6.9l3,7l3,7.2l3,7.4l3,7.5l3,7.6l3,7.8l3,7.9l3,8l3,8.1l3,8.3l3,8.3l3,8.4l3,8.5l3,8.5l3,8.6l3,8.7l3,8.7l3,8.7l3,8.8l3,8.8l3,8.8l3,8.8l3,8.8l3,8.8l3,8.7l3,8.7l3,8.7l3,8.6l3,8.5l3,8.5l3,8.4l3,8.3l3,8.3l3,8.1l3,8l3,7.9l3,7.8l3,7.6l3,7.5l3,7.4l3,7.2l3,7l3,6.9l3,6.7l3,6.5l3,6.3l3,6.1l3,5.9l3,5.7l3,5.5l3,5.3l3,5.1l3,4.8l3,4.6l3,4.4l3,4.1l3,3.9l3,3.6l3,3.3l3,3.1l3,2.9l3,2.6l3,2.3l3,2.1l3,1.7l3,1.6l3,1.2l3,1l3,0.6l3,0.5l3,0.1l3,-0.1l3,-0.5l3,-0.6l3,-1l3,-1.2l3,-1.6l3,-1.7l3,-2.1l3,-2.3l3,-2.6l3,-2.9l3,-3.1l3,-3.3l3,-3.6l3,-3.9l3,-4.1l3,-4.4l3,-4.6l3,-4.8l3,-5.1l3,-5.3l3,-5.5l3,-5.7l3,-5.9l3,-6.1l3,-6.3l3,-6.5l3,-6.7l3,-6.9l3,-7l3,-7.2l3,-7.4l3,-7.5l3,-7.6l3,-7.8l3,-7.9l3,-8l3,-8.1l3,-8.3l3,-8.3l3,-8.4l3,-8.5l3,-8.5l3,-8.6l3,-8.7l3,-8.7l3,-8.7l3,-8.8l3,-8.8l3,-8.8"/>
 </g>
</svg>